<svg xmlns="http://www.w3.org/2000/svg" viewBox="0 0 32 32" fill="none">
  <rect width="32" height="32" rx="7" fill="#6941C6"/>
  <g transform="translate(4, 4)">
    <path stroke="white" stroke-width="2" stroke-linecap="round" stroke-linejoin="round"
      d="M5 21v-16a2 2 0 0 1 2 -2h10a2 2 0 0 1 2 2v16l-3 -2l-2 2l-2 -2l-2 2l-2 -2l-3 2"/>
    <path stroke="white" stroke-width="2" stroke-linecap="round" stroke-linejoin="round"
      d="M14 8h-2.5a1.5 1.5 0 0 0 0 3h1a1.5 1.5 0 0 1 0 3h-2.5m2 0v1.5m0 -9v1.5"/>
  </g>
</svg>
